<?xml version="1.0" standalone="no"?>
<!DOCTYPE svg PUBLIC "-//W3C//DTD SVG 20010904//EN"
 "http://www.w3.org/TR/2001/REC-SVG-20010904/DTD/svg10.dtd">
<svg version="1.0" xmlns="http://www.w3.org/2000/svg"
 width="507.000000pt" height="507.000000pt" viewBox="0 0 507.000000 507.000000"
 preserveAspectRatio="xMidYMid meet">
<metadata>
Created by potrace 1.11, written by Peter Selinger 2001-2013
</metadata>
<g transform="translate(0.000000,507.000000) scale(0.100000,-0.100000)"
fill="#000000" stroke="none">
<path d="M1150 4495 l0 -575 -575 0 -575 0 0 -405 0 -405 23 0 c12 0 72 5 134
10 574 51 1078 333 1420 793 225 304 351 657 378 1060 l7 97 -406 0 -406 0 0
-575z"/>
<path d="M3110 4496 l0 -574 -67 -6 c-274 -24 -430 -55 -611 -122 -620 -232
-1090 -770 -1231 -1409 -18 -84 -34 -200 -47 -357 l-6 -68 -574 0 -574 0 0
-404 0 -405 33 4 c17 2 76 7 129 9 348 19 760 181 1053 414 442 353 701 855
740 1434 l7 96 96 7 c633 42 1177 352 1526 868 196 290 316 656 328 1005 l3
82 -402 0 -403 0 0 -574z"/>
<path d="M4905 3909 c-461 -38 -915 -254 -1242 -591 -331 -343 -514 -762 -549
-1259 l-6 -95 -142 -13 c-77 -6 -186 -21 -241 -32 -686 -140 -1253 -642 -1470
-1303 -47 -141 -80 -296 -90 -416 -3 -41 -8 -103 -11 -137 l-6 -63 406 0 406
0 0 574 c0 514 2 574 16 580 9 3 47 6 86 6 159 0 423 57 609 130 470 187 839
532 1059 992 96 201 167 472 176 678 3 58 7 115 10 128 l4 22 575 0 575 0 0
405 0 405 -32 -1 c-18 -1 -78 -5 -133 -10z"/>
<path d="M4920 1953 c-99 -7 -259 -36 -374 -68 -311 -85 -592 -246 -830 -475
-364 -349 -567 -791 -602 -1308 l-7 -102 407 0 406 0 0 575 0 575 575 0 575 0
0 405 0 405 -52 -2 c-29 -1 -73 -3 -98 -5z"/>
</g>
</svg>
